# xmcd
#
# Track frame offsets:
#	150
#	15043
#	31132
#	51017
#	66424
#	78916
#	99846
#	113022
#	130401
#	143138
#	155185
#	171557
#	188587
#	204794
#	217247
#	233569
#
# Disc length: 3314 seconds
#
# Revision: 0
# Processed by: cddbd v1.5.2PL0 Copyright (c) Steve Scherf et al.
# Submitted via: EasyCDDAExtractor 10.0.3.1
#
DISCID=d00cf010
DTITLE=Billy Preston - Encouraging Words
DYEAR=1970
DGENRE=R&B
TTITLE0=Right Now
TTITLE1=Little Girl
TTITLE2=Use What You Got
TTITLE3=My Sweet Lord
TTITLE4=Let the Music Play
TTITLE5=The Same Thing Again
TTITLE6=I've Got A Feeling
TTITLE7=Sing One for the Lord
TTITLE8=When You Are Mine
TTITLE9=I Don't Want You to Pretend
TTITLE10=Encouraging Words
TTITLE11=All Things Must Pass
TTITLE12=You've Been Acting Strange
TTITLE13=As Long as I Got My Baby (Bonus Track)
TTITLE14=All That I've Got (I'm Gonna Give It to You) (Bonus Track)
TTITLE15=How Long Has This Train Been Gone (Bonus Track)
EXTD=
EXTT0=
EXTT1=
EXTT2=
EXTT3=
EXTT4=
EXTT5=
EXTT6=
EXTT7=
EXTT8=
EXTT9=
EXTT10=
EXTT11=
EXTT12=
EXTT13=
EXTT14=
EXTT15=
PLAYORDER=
